<?xml version="1.0"?>
<svg viewBox="0 0 13670 2919"
  xmlns="http://www.w3.org/2000/svg"
  xmlns:svg="http://www.w3.org/2000/svg" preserveAspectRatio="xMidYMid meet" version="1.0">
  <g class="layer" transform="translate(-1120 -2801.25)">
    <g fill="#fff" id="layer101">
      <path d="m4726,5708c-2,-7 -9,-46 -16,-85c-6,-40 -15,-75 -20,-78c-4,-2 -10,-31 -14,-63c-5,-45 -12,-62 -31,-76c-19,-15 -23,-22 -14,-32c17,-20 14,-900 -2,-920c-9,-11 -9,-18 -1,-26c18,-18 15,-112 -5,-147c-17,-30 -17,-32 0,-62c21,-38 22,-77 2,-115c-8,-16 -15,-36 -15,-45c0,-8 -21,-36 -47,-62c-27,-25 -85,-82 -129,-125c-45,-44 -90,-94 -100,-112c-17,-30 -60,-80 -68,-80c-13,0 -73,-63 -101,-105c-40,-60 -60,-80 -114,-119c-23,-17 -41,-37 -41,-47c0,-9 -11,-24 -25,-33c-14,-9 -25,-24 -25,-34c-1,-24 -21,-48 -49,-57c-37,-11 -96,-71 -114,-113c-33,-81 -41,-123 -29,-143c7,-10 12,-30 12,-43c0,-26 19,-33 117,-43c71,-7 159,19 167,49c3,13 20,30 37,38c18,9 40,31 50,49c9,18 36,46 58,63c26,19 51,51 69,85c26,55 62,100 92,119c9,5 38,42 65,82c27,39 57,81 67,92c10,10 18,22 18,26c0,4 7,14 15,23c8,9 37,43 64,76c81,98 171,190 171,175c0,-8 10,-27 23,-42c42,-51 57,-72 57,-81c0,-5 6,-15 13,-22c28,-32 37,-45 37,-52c0,-9 80,-83 90,-83c4,0 10,-10 14,-23c6,-25 71,-67 103,-67c11,0 25,-11 31,-25c6,-14 18,-25 26,-25c15,0 76,-67 76,-84c0,-17 59,-66 102,-84c21,-9 38,-24 38,-32c0,-9 13,-29 29,-44c17,-16 31,-40 33,-55c3,-22 8,-26 31,-24c25,2 31,-3 44,-35c11,-28 25,-42 54,-55c21,-9 42,-17 45,-17c3,0 19,-12 34,-27c25,-23 38,-27 97,-28c37,-1 75,-5 83,-8c25,-11 39,6 51,59c19,90 22,114 10,114c-6,0 -11,7 -11,15c0,8 -9,19 -20,25c-11,6 -20,17 -20,25c0,8 -4,15 -9,15c-5,0 -12,10 -15,23c-8,29 -70,97 -88,97c-8,0 -25,9 -37,19c-13,11 -26,21 -29,23c-4,2 -16,20 -26,41c-11,20 -27,37 -36,37c-9,0 -26,13 -37,28c-12,16 -38,37 -58,46c-20,10 -53,36 -73,58c-20,23 -62,57 -92,77c-30,19 -63,45 -74,59c-10,13 -36,35 -58,49c-26,16 -46,38 -56,64c-8,21 -19,39 -24,39c-4,0 -8,6 -8,13c0,6 -28,44 -63,83c-34,39 -69,80 -78,91c-12,15 -16,45 -18,116c-1,53 -5,107 -10,120c-6,15 -6,40 0,63c14,62 10,107 -11,139c-23,34 -27,109 -8,150c9,20 9,34 -1,61c-9,25 -13,130 -13,382c0,204 -4,355 -10,366c-7,12 -6,22 1,29c18,18 14,163 -5,204c-26,53 -72,83 -128,83c-29,0 -48,-5 -50,-12z" id="svg_1"/>
      <path d="m13501,5456c-13,-13 -39,-26 -62,-30c-21,-3 -39,-11 -39,-16c0,-6 -9,-10 -20,-10c-11,0 -20,4 -20,9c0,9 -101,32 -112,25c-3,-2 -9,-18 -13,-34c-6,-29 -28,-40 -40,-20c-3,6 -21,10 -38,10c-24,0 -39,-8 -57,-30c-18,-22 -33,-30 -56,-30c-18,0 -45,-7 -60,-15c-16,-8 -39,-15 -51,-15c-12,0 -34,-11 -49,-24c-24,-20 -28,-32 -32,-90c-4,-61 -3,-66 16,-66c12,0 24,-4 27,-10c3,-5 30,-10 60,-10c30,0 57,5 60,10c3,6 21,10 38,10c18,0 49,9 70,20c22,12 56,20 85,20c26,0 53,5 58,10c27,27 299,47 560,42c127,-2 131,-3 142,-26c8,-19 21,-25 66,-30c30,-4 60,-14 67,-22c6,-8 17,-14 25,-14c21,0 66,-50 75,-84c5,-17 19,-36 31,-41c12,-6 26,-23 31,-40c6,-16 21,-40 35,-51c22,-19 24,-27 18,-66c-6,-37 -3,-47 13,-62c11,-10 18,-23 15,-28c-3,-5 7,-25 22,-45c25,-33 29,-48 32,-125c4,-78 7,-88 23,-88c16,0 19,-8 19,-49c0,-28 -4,-53 -10,-56c-12,-7 -14,-55 -2,-55c24,0 41,-82 47,-233c4,-86 11,-160 16,-163c12,-7 12,-51 0,-59c-5,-3 -10,-50 -10,-105c0,-55 4,-100 10,-100c12,0 12,-37 -1,-42c-6,-2 -13,-51 -16,-113c-3,-61 -12,-124 -20,-142c-8,-17 -14,-38 -14,-46c0,-9 -9,-22 -20,-30c-19,-13 -20,-19 -9,-93c6,-43 15,-80 20,-82c5,-2 9,-15 9,-29c0,-31 44,-107 73,-126c62,-40 142,-26 184,33c15,21 36,41 47,44c15,4 17,11 12,38c-3,18 -6,40 -6,48c1,30 6,65 12,80c9,22 21,92 19,115c-1,11 -3,175 -5,365c-2,190 -7,353 -11,364c-6,13 -3,21 8,28c25,14 22,48 -4,48c-19,0 -21,4 -16,39c3,22 2,43 -1,46c-23,22 -39,116 -34,192c3,60 1,94 -11,125c-8,24 -18,79 -22,122c-5,61 -11,83 -24,93c-13,8 -20,31 -25,78c-6,60 -11,70 -46,107c-29,29 -40,48 -40,70c0,28 -30,68 -51,68c-4,0 -26,34 -48,75c-39,70 -48,80 -128,131c-48,31 -94,59 -103,62c-8,3 -17,8 -20,11c-21,24 -71,48 -104,49c-21,1 -45,7 -53,14c-9,7 -38,11 -73,10c-40,-2 -76,4 -116,19c-53,20 -62,21 -108,8c-67,-17 -133,-13 -167,12c-35,25 -51,24 -78,-5z" id="svg_2"/>
      <path d="m12613,4903c-7,-2 -13,-13 -13,-24c0,-13 -7,-19 -24,-19c-14,0 -28,-4 -31,-10c-11,-17 -44,-11 -55,10c-7,14 -21,20 -43,20c-38,0 -57,-15 -57,-46c0,-23 -23,-34 -73,-34c-29,0 -59,-14 -89,-43c-14,-13 -22,-15 -36,-6c-14,9 -27,7 -60,-10c-23,-12 -42,-17 -42,-11c0,5 -11,10 -25,10c-19,0 -25,-5 -25,-22c0,-12 -14,-34 -32,-49c-20,-17 -29,-31 -23,-36c10,-8 11,-11 14,-64c1,-26 4,-29 21,-24c13,4 20,2 20,-7c0,-8 -12,-13 -30,-14c-28,-1 -31,2 -36,37c-5,29 -11,39 -25,39c-21,0 -21,-4 -19,-93c1,-40 -3,-62 -14,-73c-24,-23 -20,-44 8,-44c19,0 26,-7 31,-30c4,-16 11,-30 15,-30c13,0 90,40 125,65c47,35 55,38 49,21c-4,-10 -1,-16 7,-17c8,-1 1,-4 -16,-8c-24,-5 -30,-12 -30,-31c0,-18 5,-25 18,-24c17,2 17,0 3,-15c-9,-10 -16,-23 -16,-29c0,-7 -15,-12 -34,-12c-18,0 -45,-9 -59,-20c-30,-24 -35,-25 -58,-4c-17,15 -19,15 -30,-9c-9,-21 -9,-30 1,-42c10,-12 7,-18 -18,-32c-32,-18 -47,-48 -30,-59c13,-8 -38,-34 -67,-34c-34,0 -85,-47 -85,-76c0,-14 -4,-22 -10,-19c-28,17 -105,-58 -116,-115c-6,-29 -5,-30 32,-31c33,0 35,-2 17,-9c-12,-5 -27,-18 -33,-30c-9,-17 -14,-19 -25,-10c-8,7 -19,9 -25,5c-13,-8 -13,-35 1,-35c7,0 9,-12 5,-35c-6,-32 -5,-35 16,-35c16,0 31,12 48,40c14,22 28,40 32,40c5,0 8,7 8,15c0,8 9,24 21,36c13,13 19,28 15,41c-8,32 5,78 21,78c13,0 13,-3 3,-15c-10,-12 -8,-18 11,-35c32,-26 37,-25 70,10c29,29 39,70 18,70c-5,0 -7,5 -4,10c9,15 25,12 25,-5c0,-8 7,-15 15,-15c9,0 15,9 15,25c0,15 -6,25 -14,25c-8,0 -16,7 -20,15c-4,10 1,15 14,15c11,0 20,-7 20,-15c0,-8 9,-15 20,-15c11,0 23,7 26,15c4,8 11,15 16,15c9,0 73,50 125,98c13,12 26,22 28,22c2,0 21,16 42,35c21,19 50,40 65,46c16,6 28,17 28,23c0,20 67,49 112,49c27,0 56,8 79,23c29,18 53,24 116,25c57,2 81,7 90,18c10,14 15,14 33,3c12,-7 66,-16 121,-19c55,-3 102,-10 105,-15c3,-4 14,-8 25,-8c48,0 199,-108 199,-143c0,-8 7,-20 15,-27c8,-7 17,-27 21,-46c3,-19 10,-34 15,-34c12,0 11,-157 -1,-165c-5,-3 -10,-17 -10,-30c0,-70 -119,-215 -205,-251c-18,-7 -35,-17 -37,-21c-1,-5 -32,-18 -68,-31c-83,-28 -163,-29 -208,-2c-18,11 -38,20 -46,20c-7,0 -21,9 -31,20c-10,11 -24,20 -30,20c-7,0 -15,7 -19,15c-7,18 -43,20 -49,3c-3,-10 -7,-10 -21,1c-14,12 -19,11 -35,-3c-12,-11 -42,-18 -97,-20c-43,-2 -95,-10 -114,-17c-32,-11 -89,-63 -90,-81c0,-4 -15,-24 -34,-44c-36,-39 -52,-90 -40,-127c11,-33 81,-125 101,-131c10,-3 52,-5 93,-4c58,1 83,-4 111,-19c19,-12 55,-24 80,-28c24,-4 53,-14 64,-21c11,-8 27,-14 37,-14c9,0 23,-6 30,-13c7,-7 30,-21 51,-31c65,-30 115,-13 235,79c7,5 21,17 31,26c23,20 50,31 62,23c11,-6 -6,-23 -46,-46c-17,-9 -31,-26 -33,-37c-3,-19 2,-21 40,-21c24,0 68,7 98,15c78,21 92,20 88,-7c-3,-21 -10,-24 -71,-28c-62,-5 -70,-8 -97,-40l-29,-34l-35,17c-42,19 -69,13 -105,-26c-38,-42 -39,-157 -1,-157c6,0 19,-9 30,-20c15,-15 33,-20 73,-20c29,0 57,-4 62,-9c40,-39 500,-40 590,-1c11,5 47,11 79,15c33,3 64,10 70,14c6,5 29,12 51,16c22,4 51,14 65,21c14,7 54,25 90,40c94,38 234,111 262,137c13,12 42,32 64,44c21,12 63,41 91,65c45,36 53,48 53,77c0,28 2,32 15,21c12,-10 21,-8 50,10c30,19 35,27 35,61c0,32 -3,39 -19,39c-28,0 -91,-39 -91,-56c0,-8 -4,-14 -10,-14c-19,0 -60,-52 -60,-77c0,-24 -2,-25 -40,-19c-33,5 -47,2 -80,-20c-22,-15 -40,-32 -40,-38c0,-16 -40,-40 -72,-43c-15,-2 -37,-12 -48,-23c-11,-11 -27,-20 -35,-20c-8,0 -29,-8 -47,-18c-18,-10 -89,-33 -158,-51c-69,-18 -134,-36 -145,-41c-11,-5 -53,-11 -94,-14c-41,-3 -79,-10 -85,-16c-13,-13 -41,-13 -64,0c-9,5 -43,12 -74,15c-46,5 -58,10 -58,24c0,16 10,17 108,13c106,-4 334,20 357,37c5,5 31,12 58,15c26,4 47,11 47,17c0,5 9,9 21,9c12,0 35,6 52,14c18,7 57,23 87,36c121,50 140,61 140,75c0,17 -45,21 -55,5c-3,-5 -15,-10 -25,-10c-10,0 -31,-5 -47,-12c-15,-6 -62,-19 -103,-29c-154,-35 -175,-41 -185,-50c-15,-15 -55,-11 -55,6c0,12 -14,15 -70,15c-43,0 -79,5 -93,14c-12,7 -40,16 -62,20c-22,3 -60,15 -85,27c-24,12 -61,24 -82,27c-39,5 -39,5 -18,24c11,10 20,23 20,28c0,6 7,10 15,10c8,0 24,10 35,23c20,20 22,21 31,5c11,-19 39,-25 39,-8c0,6 9,10 20,10c11,0 20,4 20,10c0,5 16,25 35,45c28,27 34,39 26,53c-7,13 -2,25 20,50c16,18 29,28 29,22c0,-5 7,-10 15,-10c8,0 15,7 15,15c0,8 -5,15 -10,15c-6,0 1,17 15,37c14,21 25,43 25,50c0,7 4,13 8,13c4,0 13,15 21,33c7,17 15,26 18,20c8,-20 31,-15 44,9c7,13 18,28 24,35c21,20 39,167 26,204c-16,47 -14,106 5,117c13,7 15,21 11,73c-5,67 -32,186 -47,204c-4,5 -11,27 -15,48c-4,21 -14,41 -21,44c-8,3 -14,14 -14,24c0,11 -6,22 -14,25c-8,3 -17,17 -21,31c-9,39 -242,263 -273,263c-19,0 -23,-4 -19,-19c3,-12 -1,-22 -11,-26c-21,-8 -23,-3 -24,46c0,47 -12,69 -35,69c-8,0 -26,9 -40,20c-14,11 -38,20 -54,20c-15,0 -31,5 -34,10c-3,6 -22,10 -41,10c-19,0 -34,-4 -34,-10c0,-5 -21,-10 -46,-10c-38,0 -47,4 -51,20c-7,27 -49,37 -72,16c-22,-20 -31,-20 -31,-2c0,8 -4,17 -9,20c-12,8 -163,16 -178,9zm-553,-314c0,-11 -4,-17 -10,-14c-5,3 -10,13 -10,21c0,8 5,14 10,14c6,0 10,-9 10,-21zm9,-106c34,8 23,-6 -27,-38l-47,-30l3,37c4,36 29,56 43,35c4,-6 16,-7 28,-4zm173,-105c-6,-6 -15,-8 -19,-4c-4,4 -1,11 7,16c19,12 27,3 12,-12z" id="svg_3"/>
      <path d="m2030,4850c0,-5 -10,-10 -23,-10c-27,0 -61,-33 -77,-74c-9,-24 -14,-253 -9,-461c0,-22 -5,-72 -11,-112c-11,-66 -10,-77 10,-133c13,-35 19,-72 16,-85c-4,-14 -1,-29 7,-37c11,-9 11,-21 4,-51c-7,-27 -6,-64 3,-122c10,-66 11,-96 1,-142c-8,-39 -9,-78 -3,-120c10,-73 -4,-183 -23,-183c-7,0 -26,7 -41,15c-18,9 -57,15 -100,15c-38,0 -74,4 -80,10c-10,10 -111,-14 -128,-31c-13,-12 -219,-12 -232,0c-5,6 -28,13 -51,17c-34,5 -44,3 -49,-10c-3,-9 -11,-16 -18,-17c-6,0 -32,-26 -58,-57c-42,-50 -48,-63 -48,-103c0,-41 4,-49 43,-83l42,-38l88,5c49,3 95,11 103,18c10,8 91,12 272,13c245,1 258,0 279,-19c11,-11 24,-34 27,-52c4,-17 13,-34 20,-36c7,-3 48,3 92,13c56,13 84,25 97,42c16,19 29,23 78,23c32,1 64,6 71,13c15,15 60,16 76,0c7,-7 47,-11 104,-11c51,0 134,0 183,-1c215,-2 277,1 285,14c6,10 8,10 12,-1c5,-16 86,-15 102,1c13,13 113,13 121,0c8,-13 72,-13 80,0c4,6 57,10 126,10c100,0 119,2 119,15c0,20 -69,158 -84,167c-6,4 -50,8 -98,8c-48,0 -89,4 -93,9c-3,5 -97,10 -212,10c-209,1 -279,7 -289,22c-7,12 -141,11 -149,-1c-8,-14 -68,-13 -82,1c-7,7 -56,14 -110,17c-68,3 -100,9 -106,18c-4,8 -16,14 -27,14c-17,0 -18,11 -17,208c2,157 -1,217 -12,250c-12,34 -12,48 -3,63c15,24 15,44 0,87c-10,28 -10,36 0,39c16,6 15,25 -5,65c-9,18 -21,42 -26,53c-6,11 -9,62 -8,113c1,51 -3,117 -9,146c-21,101 -31,201 -33,333l-2,133l-27,0c-15,0 -30,5 -33,10c-3,6 -24,10 -46,10c-21,0 -39,-4 -39,-10z" id="svg_4"/>
      <path d="m8024,4762c-39,-14 -43,-20 -60,-74c-9,-32 -32,-80 -49,-107c-18,-27 -41,-75 -50,-107c-10,-33 -29,-68 -41,-79c-13,-11 -38,-54 -55,-95c-17,-41 -35,-79 -39,-85c-4,-5 -11,-21 -15,-35c-4,-14 -22,-47 -41,-75c-18,-27 -36,-63 -39,-80c-4,-16 -15,-37 -25,-45c-9,-9 -22,-44 -28,-82c-7,-36 -26,-92 -42,-123c-17,-31 -30,-64 -30,-74c0,-9 -7,-24 -15,-35c-13,-17 -16,-15 -59,30c-25,27 -56,60 -68,72c-13,13 -42,32 -66,43c-59,26 -192,157 -257,254c-30,44 -68,89 -85,100c-32,21 -90,115 -90,147c0,10 -6,21 -14,24c-8,3 -18,19 -21,35c-4,16 -10,29 -14,29c-5,0 -20,22 -34,49c-21,41 -23,52 -12,61c15,13 13,76 -4,108c-6,11 -11,31 -11,44c-1,69 -112,104 -186,59c-34,-21 -99,-107 -158,-211c-20,-36 -48,-83 -61,-105c-13,-22 -29,-62 -35,-90c-6,-27 -24,-75 -41,-105c-17,-30 -35,-77 -40,-104c-5,-27 -16,-57 -24,-66c-8,-9 -15,-25 -15,-36c0,-10 -7,-32 -16,-49c-9,-16 -18,-55 -21,-85c-3,-30 -9,-59 -13,-65c-7,-9 -42,-115 -89,-271c-13,-43 -21,-98 -21,-140c0,-56 -4,-74 -20,-92c-20,-21 -28,-62 -12,-62c5,0 19,-33 32,-74c13,-41 34,-86 47,-100c21,-23 32,-26 85,-26c59,0 62,1 104,46c29,31 45,57 49,82c3,20 10,52 14,69c6,20 5,49 -2,74c-13,54 17,297 42,343c10,17 21,58 25,90c3,33 10,64 15,70c5,6 12,35 16,63c4,29 11,55 16,59c5,3 9,16 9,30c0,13 9,33 20,44c11,11 20,30 20,41c0,25 20,99 31,114c4,6 10,27 14,48c4,20 11,37 15,37c5,0 12,9 15,21c6,18 12,12 42,-38c19,-32 39,-65 44,-73c5,-8 18,-31 28,-51c11,-20 31,-43 45,-53c14,-9 26,-24 26,-34c0,-10 18,-35 39,-55c22,-21 45,-53 51,-71c7,-23 19,-36 36,-40c14,-4 28,-14 31,-24c7,-21 60,-72 75,-72c14,0 58,-48 58,-63c0,-7 13,-18 28,-25c16,-7 35,-25 43,-40c21,-40 35,-52 62,-52c21,0 27,-7 34,-37c6,-29 14,-39 32,-41c14,-2 26,-14 33,-33c7,-21 16,-29 34,-29c16,0 24,-6 24,-17c0,-10 9,-33 20,-51c11,-17 23,-50 26,-72c5,-29 15,-46 40,-65c18,-14 36,-25 41,-25c5,0 16,-9 26,-20c12,-15 29,-20 65,-20c42,0 53,5 82,34c18,19 42,36 54,38c20,3 21,10 26,133c4,102 9,135 23,155c9,13 17,35 17,47c0,13 4,23 9,23c11,0 41,79 41,107c0,21 6,38 36,108c7,17 21,62 32,100c11,39 31,92 46,119c14,27 26,54 26,61c0,7 9,20 20,30c11,10 20,22 20,26c0,19 63,149 72,149c6,0 12,-8 14,-18c3,-9 21,-28 40,-41c23,-16 37,-36 45,-64c6,-23 24,-55 40,-71c16,-16 29,-33 29,-36c0,-4 12,-13 26,-21c15,-7 44,-39 65,-69c21,-30 56,-73 78,-94c23,-22 41,-45 41,-52c0,-7 6,-19 13,-26c19,-20 83,-119 102,-158c10,-19 31,-48 47,-65c16,-16 31,-40 34,-52c4,-13 9,-23 14,-23c13,0 38,-77 33,-103c-3,-14 6,-45 22,-77c26,-51 26,-55 15,-117c-12,-62 -12,-65 14,-101c14,-21 26,-45 26,-54c0,-25 49,-67 86,-74c52,-10 82,3 140,58l54,51l0,83c0,45 -4,86 -10,89c-5,3 -19,36 -30,73c-22,75 -61,165 -72,170c-5,2 -8,10 -8,18c0,8 -11,36 -25,62c-14,26 -25,51 -25,57c0,5 -18,30 -40,54c-22,25 -40,47 -40,50c0,3 -15,23 -34,43c-19,20 -37,50 -41,66c-3,16 -20,42 -36,58c-17,16 -46,59 -65,97c-21,40 -41,67 -50,67c-18,0 -83,68 -84,88c0,14 -28,61 -46,77c-6,6 -25,30 -41,55c-17,25 -40,54 -52,64c-11,11 -21,28 -21,38c0,11 -9,31 -20,45c-11,14 -20,34 -20,45c0,10 -7,30 -16,43c-12,19 -14,38 -9,88c9,83 -6,109 -81,137c-63,23 -93,24 -150,2z" id="svg_5"/>
      <path d="m11040,4767c0,-21 -33,-30 -84,-23c-24,4 -55,2 -69,-3c-18,-7 -36,-7 -58,1c-24,8 -37,8 -51,-1c-11,-7 -28,-9 -39,-6c-12,4 -34,-3 -57,-17c-22,-14 -61,-25 -97,-29c-116,-13 -235,-34 -235,-41c0,-4 -55,-8 -122,-8c-106,0 -127,-3 -153,-20c-24,-16 -47,-20 -122,-20c-50,0 -94,-4 -97,-9c-9,-14 -65,-21 -162,-22c-49,0 -121,-5 -161,-10c-59,-8 -84,-7 -135,6c-89,24 -160,60 -181,93c-11,16 -39,15 -63,-3c-10,-8 -35,-15 -55,-15c-38,0 -59,-14 -59,-40c0,-9 -9,-25 -20,-35c-37,-33 -21,-145 21,-145c5,0 9,-6 9,-13c0,-13 100,-77 121,-77c8,0 39,-16 69,-37c30,-20 72,-47 92,-61c21,-13 40,-33 43,-43c4,-13 16,-19 36,-19c22,0 32,-6 38,-23c5,-13 16,-29 25,-36c9,-7 16,-19 16,-26c0,-15 22,-25 55,-25c12,0 28,-7 36,-16c7,-8 29,-24 49,-34c20,-10 53,-37 73,-59c20,-22 54,-49 74,-58c21,-10 39,-27 41,-37c2,-11 9,-24 16,-30c22,-21 92,-66 103,-66c6,0 23,-18 38,-40c16,-23 36,-40 47,-40c27,0 58,-18 58,-34c0,-15 48,-54 99,-80c18,-10 38,-30 44,-46c8,-22 22,-32 54,-42c24,-7 43,-16 43,-20c0,-5 26,-35 58,-68c31,-33 64,-68 73,-78c8,-10 26,-26 39,-35c13,-9 21,-20 17,-23c-4,-4 -64,-8 -134,-8c-101,-1 -135,3 -160,15c-30,16 -33,16 -49,-2c-14,-16 -29,-18 -118,-15c-69,2 -111,8 -133,19c-18,10 -34,13 -38,8c-3,-6 -13,-10 -23,-10c-96,-2 -137,1 -148,10c-10,8 -19,7 -35,-5c-19,-13 -23,-13 -36,0c-11,11 -19,12 -28,4c-8,-6 -40,-14 -72,-16c-88,-8 -100,-12 -138,-45c-27,-24 -35,-39 -35,-64c0,-19 -4,-37 -10,-40c-5,-3 -10,-21 -10,-40c0,-29 6,-36 48,-60l47,-26l375,-6c206,-3 391,-5 410,-4c19,1 164,3 321,4c277,1 287,0 338,-22c38,-16 64,-21 87,-16c90,16 155,138 117,216c-15,32 -24,38 -69,48c-29,7 -55,19 -58,27c-3,7 -16,14 -30,14c-15,0 -27,7 -30,18c-3,9 -31,37 -63,62c-92,73 -152,131 -174,166c-11,19 -29,34 -39,34c-10,0 -21,8 -24,18c-4,11 -17,25 -31,32c-13,7 -25,24 -27,38c-2,19 -16,31 -55,51c-32,16 -52,33 -52,44c-1,9 -7,17 -15,17c-25,0 -85,40 -91,61c-4,10 -10,19 -14,19c-4,0 -26,18 -49,40c-22,22 -48,40 -56,40c-8,0 -23,14 -33,30c-15,26 -23,30 -61,30c-35,0 -45,4 -49,20c-3,11 -9,20 -14,20c-5,0 -9,6 -9,13c0,13 -34,47 -48,47c-4,0 -23,17 -42,37c-19,20 -58,47 -86,60c-28,13 -62,37 -75,55c-37,49 -82,88 -101,88c-10,0 -18,4 -18,9c0,4 42,10 94,13c61,3 101,10 116,21c17,12 39,14 100,10c60,-5 85,-2 102,9c13,8 55,18 94,21c39,4 85,14 103,23c25,13 49,15 96,11c43,-4 68,-2 81,7c10,7 54,16 97,20c43,4 90,12 105,18c15,7 81,15 147,19c66,4 167,12 225,18c145,15 138,15 207,13c57,-2 64,-5 108,-45c53,-50 75,-87 75,-128c0,-15 5,-31 10,-34c6,-3 10,-16 10,-27c0,-22 9,-34 69,-94c30,-29 42,-34 82,-34c41,0 53,5 86,36c36,34 38,39 36,89c-2,28 -9,65 -18,81c-8,16 -15,40 -15,54c0,15 -4,30 -9,35c-5,6 -19,35 -32,65c-44,105 -138,230 -174,230c-8,0 -24,9 -35,20c-17,17 -32,21 -75,19c-30,-1 -60,3 -67,9c-8,6 -36,9 -68,6c-85,-7 -102,-7 -142,1c-31,6 -38,5 -38,-8z" id="svg_6"/>
      <path d="m11967,4683c-12,-11 -8,-23 8,-23c8,0 15,7 15,15c0,16 -12,20 -23,8z" id="svg_7"/>
      <path d="m12715,4309c-117,-25 -200,-87 -249,-184c-26,-52 -29,-68 -29,-154c0,-85 3,-102 27,-150c38,-74 81,-118 151,-154c54,-27 69,-30 155,-31c104,0 161,18 223,70c87,73 138,210 118,317c-25,137 -104,232 -226,270c-69,22 -123,27 -170,16zm140,-45c17,-8 21,-11 10,-8c-11,4 -43,9 -70,11c-45,5 -70,1 -140,-21c-11,-4 -2,3 20,14c48,23 136,26 180,4zm12,-97c60,-31 110,-98 126,-168c9,-36 -17,-118 -50,-161c-45,-58 -97,-82 -174,-81c-58,0 -72,4 -112,32c-68,47 -101,108 -100,188c0,50 5,71 22,93c11,16 21,32 21,35c0,10 43,45 70,57c88,39 130,40 197,5zm212,-197c0,-30 -6,-68 -14,-85c-11,-23 -13,-24 -7,-5c4,14 7,60 7,102c0,43 3,70 7,60c4,-9 7,-42 7,-72zm-602,-27c-2,-21 -4,-6 -4,32c0,39 2,55 4,38c2,-18 2,-50 0,-70zm331,-274c-22,-5 -54,-5 -75,0c-33,8 -28,9 37,9c65,0 70,-1 38,-9z" id="svg_8"/>
      <path d="m11890,4280c0,-11 7,-20 15,-20c8,0 15,9 15,20c0,11 -7,20 -15,20c-8,0 -15,-9 -15,-20z" id="svg_9"/>
      <path d="m11812,4183c2,-10 10,-18 18,-18c22,0 18,29 -3,33c-14,3 -18,-1 -15,-15z" id="svg_10"/>
    </g>
    <g fill="#f00" id="layer102">
      <path d="m12613,4903c-7,-2 -13,-13 -13,-24c0,-13 -7,-19 -24,-19c-14,0 -28,-4 -31,-10c-11,-17 -44,-11 -55,10c-7,14 -21,20 -43,20c-38,0 -57,-15 -57,-46c0,-23 -23,-34 -73,-34c-29,0 -59,-14 -89,-43c-14,-13 -22,-15 -36,-6c-14,9 -27,7 -60,-10c-23,-12 -42,-17 -42,-11c0,5 -11,10 -25,10c-19,0 -25,-5 -25,-22c0,-12 -14,-34 -32,-49c-20,-17 -29,-31 -23,-36c10,-8 11,-11 14,-64c1,-26 4,-29 21,-24c13,4 20,2 20,-7c0,-8 -12,-13 -30,-14c-28,-1 -31,2 -36,37c-5,29 -11,39 -25,39c-21,0 -21,-4 -19,-93c1,-40 -3,-62 -14,-73c-24,-23 -20,-44 8,-44c19,0 26,-7 31,-30c4,-16 11,-30 15,-30c13,0 90,40 125,65c47,35 55,38 49,21c-4,-10 -1,-16 7,-17c8,-1 1,-4 -16,-8c-24,-5 -30,-12 -30,-31c0,-18 5,-25 18,-24c17,2 17,0 3,-15c-9,-10 -16,-23 -16,-29c0,-7 -15,-12 -34,-12c-18,0 -45,-9 -59,-20c-30,-24 -35,-25 -58,-4c-17,15 -19,15 -30,-9c-9,-21 -9,-30 1,-42c10,-12 7,-18 -18,-32c-32,-18 -47,-48 -30,-59c13,-8 -38,-34 -67,-34c-34,0 -85,-47 -85,-76c0,-14 -4,-22 -10,-19c-28,17 -105,-58 -116,-115c-6,-29 -5,-30 32,-31c33,0 35,-2 17,-9c-12,-5 -27,-18 -33,-30c-9,-17 -14,-19 -25,-10c-8,7 -19,9 -25,5c-13,-8 -13,-35 1,-35c7,0 9,-12 5,-35c-6,-32 -5,-35 16,-35c16,0 31,12 48,40c14,22 28,40 32,40c5,0 8,7 8,15c0,8 9,24 21,36c13,13 19,28 15,41c-8,32 5,78 21,78c13,0 13,-3 3,-15c-10,-12 -8,-18 11,-35c32,-26 37,-25 70,10c29,29 39,70 18,70c-5,0 -7,5 -4,10c9,15 25,12 25,-5c0,-8 7,-15 15,-15c9,0 15,9 15,25c0,15 -6,25 -14,25c-8,0 -16,7 -20,15c-4,10 1,15 14,15c11,0 20,-7 20,-15c0,-8 9,-15 20,-15c11,0 23,7 26,15c4,8 11,15 16,15c9,0 73,50 125,98c13,12 26,22 28,22c2,0 21,16 42,35c21,19 50,40 65,46c16,6 28,17 28,23c0,20 67,49 112,49c27,0 56,8 79,23c29,18 53,24 116,25c57,2 81,7 90,18c10,14 15,14 33,3c12,-8 68,-16 128,-19c98,-5 113,-9 176,-42c73,-39 146,-100 146,-124c0,-8 7,-20 15,-27c8,-7 17,-27 21,-46c3,-19 10,-34 15,-34c12,0 11,-157 -1,-165c-5,-3 -10,-17 -10,-30c0,-68 -109,-203 -202,-251c-18,-9 -35,-20 -38,-24c-3,-4 -34,-17 -69,-28c-83,-28 -165,-29 -209,-2c-18,11 -38,20 -46,20c-7,0 -21,9 -31,20c-10,11 -24,20 -30,20c-7,0 -15,7 -19,15c-7,18 -43,20 -49,3c-3,-10 -7,-10 -21,1c-14,12 -19,11 -35,-3c-12,-11 -42,-18 -97,-20c-43,-2 -95,-10 -114,-17c-32,-11 -89,-63 -90,-81c0,-4 -15,-24 -34,-44c-36,-39 -52,-90 -40,-127c11,-33 81,-125 101,-131c10,-3 52,-5 93,-4c58,1 83,-4 111,-19c19,-12 55,-24 80,-28c24,-4 53,-14 64,-21c11,-8 27,-14 37,-14c9,0 23,-6 30,-13c7,-7 30,-21 51,-31c65,-30 115,-13 235,79c7,5 21,17 31,26c23,20 50,31 62,23c11,-6 -6,-23 -46,-46c-17,-9 -31,-26 -33,-37c-3,-19 2,-21 40,-21c24,0 68,7 98,15c78,21 92,20 88,-7c-3,-21 -10,-24 -71,-28c-62,-5 -70,-8 -97,-40l-29,-34l-35,17c-42,19 -69,13 -105,-26c-38,-42 -39,-157 -1,-157c6,0 19,-9 30,-20c15,-15 33,-20 73,-20c29,0 57,-4 62,-9c40,-39 500,-40 590,-1c11,5 47,11 79,15c33,3 64,10 70,14c6,5 29,12 51,16c22,4 51,14 65,21c14,7 54,25 90,40c95,38 234,111 262,137c13,12 36,28 51,36c15,8 56,41 92,74c47,43 65,67 65,85c0,20 3,22 14,13c30,-25 86,24 86,75c0,27 -4,34 -19,34c-28,0 -91,-39 -91,-56c0,-8 -4,-14 -10,-14c-19,0 -60,-52 -60,-77c0,-24 -2,-25 -40,-19c-33,5 -47,2 -80,-20c-22,-15 -40,-32 -40,-38c0,-16 -40,-40 -72,-43c-15,-2 -37,-12 -48,-23c-11,-11 -27,-20 -35,-20c-8,0 -29,-8 -47,-18c-18,-10 -89,-33 -158,-51c-69,-18 -134,-36 -145,-41c-11,-5 -53,-11 -94,-14c-41,-3 -79,-10 -85,-16c-13,-13 -41,-13 -64,0c-9,5 -43,12 -74,15c-46,5 -58,10 -58,24c0,16 10,17 108,13c106,-4 334,20 357,37c5,5 31,12 58,15c26,4 47,11 47,17c0,5 9,9 21,9c12,0 35,6 52,14c18,7 57,23 87,36c121,50 140,61 140,75c0,17 -45,21 -55,5c-3,-5 -15,-10 -25,-10c-10,0 -31,-5 -47,-12c-15,-6 -62,-19 -103,-29c-154,-35 -175,-41 -185,-50c-15,-15 -55,-11 -55,6c0,12 -14,15 -70,15c-43,0 -79,5 -93,14c-12,7 -40,16 -62,20c-22,3 -60,15 -85,27c-24,12 -61,24 -82,27c-39,5 -39,5 -18,24c11,10 20,23 20,28c0,6 7,10 15,10c8,0 24,10 35,23c20,20 22,21 31,5c11,-19 39,-25 39,-8c0,6 9,10 20,10c11,0 20,4 20,10c0,5 16,25 35,45c28,27 34,39 26,53c-7,13 -2,25 20,50c16,18 29,28 29,22c0,-5 7,-10 15,-10c8,0 15,7 15,15c0,8 -5,15 -10,15c-6,0 1,17 15,37c14,21 25,43 25,50c0,7 4,13 8,13c4,0 13,15 21,33c7,17 15,26 18,20c8,-20 31,-15 44,9c7,13 18,28 24,35c21,20 39,167 26,204c-16,47 -14,106 5,117c13,7 15,21 11,73c-5,67 -32,186 -47,204c-4,5 -11,27 -15,48c-4,21 -14,41 -21,44c-8,3 -14,14 -14,24c0,11 -6,22 -14,25c-8,3 -17,17 -21,31c-9,39 -242,263 -273,263c-19,0 -23,-4 -19,-19c3,-12 -1,-22 -11,-26c-21,-8 -23,-3 -24,46c0,47 -12,69 -35,69c-8,0 -26,9 -40,20c-14,11 -38,20 -54,20c-15,0 -31,5 -34,10c-3,6 -22,10 -41,10c-19,0 -34,-4 -34,-10c0,-5 -21,-10 -46,-10c-38,0 -47,4 -51,20c-7,27 -49,37 -72,16c-22,-20 -31,-20 -31,-2c0,8 -4,17 -9,20c-12,8 -163,16 -178,9zm-553,-314c0,-11 -4,-17 -10,-14c-5,3 -10,13 -10,21c0,8 5,14 10,14c6,0 10,-9 10,-21zm9,-106c34,8 23,-6 -27,-38l-47,-30l3,37c4,36 29,56 43,35c4,-6 16,-7 28,-4zm173,-105c-6,-6 -15,-8 -19,-4c-4,4 -1,11 7,16c19,12 27,3 12,-12z" id="svg_11"/>
      <path d="m11967,4683c-12,-11 -8,-23 8,-23c8,0 15,7 15,15c0,16 -12,20 -23,8z" id="svg_12"/>
      <path d="m11890,4280c0,-11 7,-20 15,-20c8,0 15,9 15,20c0,11 -7,20 -15,20c-8,0 -15,-9 -15,-20z" id="svg_13"/>
      <path d="m11812,4183c2,-10 10,-18 18,-18c22,0 18,29 -3,33c-14,3 -18,-1 -15,-15z" id="svg_14"/>
    </g>
  </g>
</svg>
